<svg width="96" height="96" xmlns="http://www.w3.org/2000/svg" xmlns:xlink="http://www.w3.org/1999/xlink" xml:space="preserve" overflow="hidden"><defs><clipPath id="clip0"><rect x="592" y="312" width="96" height="96"/></clipPath></defs><g clip-path="url(#clip0)" transform="translate(-592 -312)"><path d="M652 337C652 340.866 648.866 344 645 344 641.134 344 638 340.866 638 337 638 333.134 641.134 330 645 330 648.866 330 652 333.134 652 337Z"/><path d="M628 379C628 385.075 623.075 390 617 390 610.925 390 606 385.075 606 379 606 372.925 610.925 368 617 368 623.075 368 628 372.925 628 379Z"/><path d="M674 379C674 385.075 669.075 390 663 390 656.925 390 652 385.075 652 379 652 372.925 656.925 368 663 368 669.075 368 674 372.925 674 379Z"/><path d="M643.2 360.8 638.2 360.3 642.9 352.2 653.6 358C653.5 358.1 653.5 358.2 653.4 358.3L645 363 645 362.8C645 361.8 644.2 360.9 643.2 360.8ZM663 365C664.9 365 666.7 365.4 668.3 366.1 669.3 364.3 670 362.2 670 360 670 353.4 664.6 348 658 348 656.6 348 655.3 348.3 654 348.7 654.5 349.7 654.8 350.8 654.9 352L641.4 344.6C641.2 344.5 641 344.4 640.8 344.4 638.5 343.5 635.9 344.3 634.6 346.5L627.6 358.5C627.5 358.7 627.4 359 627.3 359.2L606 357 606 361 621 365.6C626.8 367.3 631 372.7 631 379 631 380.4 630.8 381.7 630.4 383L649.6 383C649.2 381.7 649 380.4 649 379 649 371.3 655.3 365 663 365Z"/></g></svg>