<svg xmlns="http://www.w3.org/2000/svg" xmlns:xlink="http://www.w3.org/1999/xlink" viewBox="0 0 500 500"><defs><clipPath id="freepik--clip-path--inject-129"><polygon points="361.92 406.69 285.97 406.69 285.97 36.62 361.92 67.48 361.92 406.69" style="fill:none;stroke:#999;stroke-linecap:round;stroke-linejoin:round;stroke-width:0.75px"></polygon></clipPath><clipPath id="freepik--clip-path-2--inject-129"><polygon points="454.07 91.82 454.07 77.68 425.47 77.68 425.47 91.82 378 91.82 378 406.69 460.99 406.69 460.99 91.82 454.07 91.82" style="fill:none;stroke:#999;stroke-linecap:round;stroke-linejoin:round;stroke-width:0.75px"></polygon></clipPath><clipPath id="freepik--clip-path-3--inject-129"><path d="M269.89,211.65c-2.23-7.13-9.37-11.59-9.37-11.59a13.74,13.74,0,0,0,9.37-7.56,46.84,46.84,0,0,0-8.92-7.61c4,0,7.58-5.35,7.58-5.35-4.91-8-14.27-8.8-14.27-8.8,8.92-1.66,6.24-11.27,6.24-11.27-3.57-5.8-16.95-1.34-16.95-1.34,8-4.9,2.68-12.93,2.68-12.93-10.71-3.57-20.07,2.67-20.07,2.67,2.67-7.13-2.68-12.93-2.68-12.93a14.27,14.27,0,0,0-5.67.68,26.64,26.64,0,0,0-7.56-7.7,13.73,13.73,0,0,0,9.36-7.55,46.69,46.69,0,0,0-8.92-7.62c4,0,7.59-5.35,7.59-5.35-4.91-8-14.28-8.79-14.28-8.79,8.92-1.67,6.25-11.28,6.25-11.28-3.57-5.8-17-1.34-17-1.34,8-4.9,2.67-12.93,2.67-12.93-10.7-3.57-20.07,2.68-20.07,2.68,2.68-7.14-2.67-12.94-2.67-12.94-10.71-.89-17.84,10.71-17.84,10.71C149.83,62.13,144.15,66,144.15,66a18.56,18.56,0,0,0-3.46,12.55c-5.68-4.67-13.24-5.17-13.24-5.17a46.6,46.6,0,0,0-.8,11.7c-2.39-3.23-8.82-2.91-8.82-2.91-2.58,6.4.24,13.54,1.94,16.9-.16.25-.32.5-.47.75-6.24-4.1-12.81.75-12.81.75-1,2.57.49,5.66,2.66,8.42a32.88,32.88,0,0,0-8.61-2.08,55.58,55.58,0,0,0-1,13.91c-2.84-3.83-10.48-3.45-10.48-3.45-2.2,5.44-1.1,11.33.44,15.71a20.36,20.36,0,0,0-6,3.33,16.64,16.64,0,0,0-8,2.84,6.28,6.28,0,0,0-.27.94c-5.16-7.82-9.91-4.65-9.91-4.65a19.45,19.45,0,0,0-3.61,13.1c-5.92-4.87-13.81-5.4-13.81-5.4a48.68,48.68,0,0,0-.83,12.2c-2.5-3.36-9.2-3-9.2-3C34.3,161.46,41.14,172,41.14,172c-6.94-6.44-15-.47-15-.47C23.51,178.15,36.94,188,36.94,188c-9.1-3.68-13.89,4.38-13.89,4.38,3.66,11.19,17,14.91,17,14.91-7.65,2.19-11.41,10.53-11.41,10.53,5.9,9.52,23.41,4.41,23.41,4.41s-7.86,4.42-8.09,11.63c0,0,9.54,2.56,14.66-1.62,0,0-1.63,7.66,2.32,12.44,0,0,7.21-3.6,7.45-7.56,0,0,4.88,9.07,10.23,10.24a9.29,9.29,0,0,0,4.19-7.21s10.93,10.93,17.21,10c0,0,2.1-7.21.47-10.94,0,0,8.14,1.4,12.56.94,0,0,.93-5.59-.93-9.08,0,0,7.44,3.49,12.79.93,0,0-.46-6.51-1.86-9.3a33.43,33.43,0,0,0,8.94,1.28,9.53,9.53,0,0,0,3.43,1.63,10.6,10.6,0,0,0,4.78-8.22s12.46,12.47,19.62,11.41a32,32,0,0,0,1.18-9.57c6.8,6,20.58,2,20.58,2s-7.54,4.24-7.76,11.15c0,0,9.15,2.46,14-1.56,0,0-1.56,7.35,2.23,11.93,0,0,6.91-3.45,7.14-7.25,0,0,4.68,8.7,9.81,9.82a8.9,8.9,0,0,0,4-6.92S221.5,248.9,227.52,248c0,0,2-6.91.44-10.48,0,0,7.81,1.34,12,.89,0,0,.9-5.35-.89-8.69,0,0,7.14,3.34,12.27.89,0,0-.45-6.25-1.79-8.92,0,0,6.69,2,11.38.89-1.79-7.58-6.69-9.22-6.69-9.22C264.09,215.06,269.89,211.65,269.89,211.65Z" style="fill:#92E3A9"></path></clipPath><clipPath id="freepik--clip-path-4--inject-129"><path d="M326.28,365.57s-15.3-8.61-2.8-14c0,0-4.59-4.71-2.77-9.13s5.43-2.77,5.43-2.77-5.11-7-1-9.55,7.6,1.64,7.6,1.64-3.7-9.5,1-10.8a5.89,5.89,0,0,1,6.81,3s-2.34-10.16,1.56-10.16,5.2,6.26,5.2,6.26,2.34-6.32,6-5.28,1.3,8.4,1.3,8.4,4.07-4.7,7.19-2.62-1,7-1,7,4.65-4.21,7.25-1.36-3.09,7.6-3.09,7.6,4.65-1.42,5.95,2-3.15,5.89-3.15,5.89,2.82-.23,4.25,3.67-4.82,4.65-4.82,4.65,4.42-.64,4.95,2.74-4.69,4.74-4.69,4.74,3.14-.48,3.66,2.33-5.63,5.72-5.63,5.72Z" style="fill:#92E3A9;stroke:#263238;stroke-linecap:round;stroke-linejoin:round;stroke-width:0.75px"></path></clipPath><clipPath id="freepik--clip-path-5--inject-129"><path d="M429.53,365.57s15.9-8.61,3.77-14c0,0,4.92-4.71,3.41-9.13s-5.23-2.77-5.23-2.77,5.6-7,1.62-9.55-7.71,1.64-7.71,1.64,4.36-9.5-.23-10.8-7,3-7,3,3.05-10.16-.85-10.16-5.63,6.26-5.63,6.26-1.9-6.32-5.61-5.28-1.89,8.4-1.89,8.4-3.74-4.7-7-2.62.46,7,.46,7-4.36-4.21-7.15-1.36,2.55,7.6,2.55,7.6-4.55-1.42-6.08,2,2.73,5.89,2.73,5.89-2.8-.23-4.51,3.67,4.51,4.65,4.51,4.65-4.39-.64-5.15,2.74,4.36,4.74,4.36,4.74-3.11-.48-3.82,2.33,5.23,5.72,5.23,5.72Z" style="fill:#92E3A9;stroke:#263238;stroke-linecap:round;stroke-linejoin:round;stroke-width:0.75px"></path></clipPath><clipPath id="freepik--clip-path-6--inject-129"><polygon points="183.89 262.68 163.33 351.31 116.92 351.31 113.64 361.8 396.92 361.8 419.12 262.68 183.89 262.68" style="fill:#92E3A9;stroke:#263238;stroke-linecap:round;stroke-linejoin:round"></polygon></clipPath><clipPath id="freepik--clip-path-7--inject-129"><polygon points="396.92 361.8 399.27 351.31 163.33 351.31 116.92 351.31 113.64 361.8 396.92 361.8" style="fill:#92E3A9;stroke:#263238;stroke-linecap:round;stroke-linejoin:round"></polygon></clipPath><clipPath id="freepik--clip-path-8--inject-129"><polygon points="197.62 336.08 198.51 320.14 178.54 320.14 179.43 336.08 197.62 336.08" style="fill:#92E3A9;stroke:#263238;stroke-linecap:round;stroke-linejoin:round;stroke-width:0.75px"></polygon></clipPath><clipPath id="freepik--clip-path-9--inject-129"><path d="M328.34,195s4.49,18.11,8.75,25.36L316.64,233l-3.22-.24s-.77-8.21-3.18-11.46,11.05-18.66,11.05-18.66l4.27-6.21Z" style="fill:#fff;stroke:#263238;stroke-linecap:round;stroke-linejoin:round"></path></clipPath><clipPath id="freepik--clip-path-10--inject-129"><path d="M293.49,191.89s0,9.12,1,10.67,2.7,3.76,2.7,3.76,1.36,7.59,5.06,13.1c0,0,.88,6.34,5.44,5.34s17.15-12.09,17.42-14.64a23.56,23.56,0,0,0,.05-4.47s2.28.95,4-3.63,1.32-10-2.26-10.24-3.37,3.55-4.85,3.87-.72,4.73-.72,4.73l-2.93.85s-.39-7-3.59-10.62-6.43-4.7-4.15-8.94c0,0-7.75.15-15.83,6.29Z" style="fill:#fff;stroke:#263238;stroke-linecap:round;stroke-linejoin:round"></path></clipPath><clipPath id="freepik--clip-path-11--inject-129"><path d="M288.23,303.74s-4.09,3.1-11.89,15.85c0,0-68,1.61-81,6.44s-16,10.4-13.37,20.05,21.17,43.83,24.14,67.23c0,0,29.49-1.85,36.19-7.42,0,0-13.53-40.49-22.82-52,0,0,20.43,4.09,28.23-.74l44.57-4.74s30.83,4.74,36-4.92,8.75-31.76,8.75-31.76Z" style="fill:#263238;stroke:#263238;stroke-linecap:round;stroke-linejoin:round"></path></clipPath><clipPath id="freepik--clip-path-12--inject-129"><path d="M293.8,303.74s-7.06,5.57-9.66,18.2c0,0-36.77-.74-40.85,11.89s6.31,40.11,6.31,40.11-2.23,39.74,1.86,42,23.77.37,29.71-8.17c0,0,1.12-9.66-1.86-13.37,0,0,1.35-29.85-2-36.91a42.22,42.22,0,0,0,12.77-2c4.34-1.52,8.28-3.57,12.25-4.54,4.78-1.16,9.75.21,19.66-.67,6.16-.54,12.38-2.08,16.37-5.64,7.85-7,11.89-30.46,11.89-30.46Z" style="fill:#263238;stroke:#263238;stroke-linecap:round;stroke-linejoin:round"></path></clipPath><clipPath id="freepik--clip-path-13--inject-129"><path d="M283.69,305.87a48.34,48.34,0,0,0,6.52-19c2-15.13.76-36.84,10.58-46.94,17.33-17.83,35.35-23.94,56.65-9.71s6.06,34.24-6.81,88.43C350.63,318.63,326.54,306.74,283.69,305.87Z" style="fill:#fff;stroke:#263238;stroke-linecap:round;stroke-linejoin:round"></path></clipPath><clipPath id="freepik--clip-path-14--inject-129"><path d="M312.19,228.34l2,3.75s16-15.63,24.33-14.15l2.24,5.3s-9.49.83-19.33,14.76L314,233.73,307.45,238Z" style="fill:#92E3A9;stroke:#263238;stroke-linecap:round;stroke-linejoin:round"></path></clipPath><clipPath id="freepik--clip-path-15--inject-129"><path d="M295.32,249.42,307.48,282l-23.71,11.34-12.16-32.6A37.88,37.88,0,0,1,295.32,249.42Z" style="fill:#92E3A9;stroke:#263238;stroke-linecap:round;stroke-linejoin:round"></path></clipPath><clipPath id="freepik--clip-path-16--inject-129"><path d="M265.93,260.39,278.09,293l-14.23-13.42L251.71,247S259.21,250.05,265.93,260.39Z" style="fill:#92E3A9;stroke:#263238;stroke-linecap:round;stroke-linejoin:round"></path></clipPath><clipPath id="freepik--clip-path-17--inject-129"><path d="M341.35,287.56s16.8,3.09,22.86,11.29c0,0,2.26-.83,2.26-4,0,0,1.24-.95,1-3.57,0,0-8.74-6.77-25.21-8.08,0,0-1.71.72-.95,1.67C341.35,284.83,338.41,286.89,341.35,287.56Z" style="fill:#92E3A9;stroke:#263238;stroke-linecap:round;stroke-linejoin:round"></path></clipPath></defs><g id="freepik--background-simple--inject-129"><path d="M422.15,406.69c26.39-53.26,89.64-195.92,28.14-229.35-55.15-30-67.43,43.6-104.67,38.27C282,206.5,299.88,90.36,226,121.13c-67.43,28.08,3.15,152.14-42.17,177.83-46.09,26.13-81-65.5-120.62-16.22-32.88,40.94-1,100.78,13.68,124Z" style="fill:#92E3A9"></path><path d="M422.15,406.69c26.39-53.26,89.64-195.92,28.14-229.35-55.15-30-67.43,43.6-104.67,38.27C282,206.5,299.88,90.36,226,121.13c-67.43,28.08,3.15,152.14-42.17,177.83-46.09,26.13-81-65.5-120.62-16.22-32.88,40.94-1,100.78,13.68,124Z" style="fill:#fff;opacity:0.7000000000000001"></path></g><g id="freepik--Buildings--inject-129"><g style="clip-path:url(#freepik--clip-path--inject-129)"><polygon points="361.92 340.23 285.97 340.23 285.97 36.62 361.92 67.48 361.92 340.23" style="fill:none;stroke:#999;stroke-miterlimit:10;opacity:0.5"></polygon></g><polygon points="361.92 406.69 285.97 406.69 285.97 36.62 361.92 67.48 361.92 406.69" style="fill:none;stroke:#999;stroke-linecap:round;stroke-linejoin:round;stroke-width:0.75px"></polygon><rect x="310.22" y="63.47" width="11.45" height="11.45" style="fill:none;stroke:#999;stroke-miterlimit:10"></rect><rect x="294.23" y="80.74" width="11.45" height="11.45" style="fill:none;stroke:#999;stroke-miterlimit:10"></rect><rect x="310.22" y="98" width="11.45" height="11.45" style="fill:none;stroke:#999;stroke-miterlimit:10"></rect><rect x="326.21" y="98" width="11.45" height="11.45" style="fill:none;stroke:#999;stroke-miterlimit:10"></rect><rect x="294.23" y="132.54" width="11.45" height="11.45" style="fill:none;stroke:#999;stroke-miterlimit:10"></rect><rect x="326.21" y="132.54" width="11.45" height="11.45" style="fill:none;stroke:#999;stroke-miterlimit:10"></rect><rect x="310.22" y="149.8" width="11.45" height="11.45" style="fill:none;stroke:#999;stroke-miterlimit:10"></rect><rect x="294.23" y="167.07" width="11.45" height="11.45" style="fill:none;stroke:#999;stroke-miterlimit:10"></rect><rect x="326.21" y="167.07" width="11.45" height="11.45" style="fill:none;stroke:#999;stroke-miterlimit:10"></rect><rect x="342.2" y="167.07" width="11.45" height="11.45" style="fill:none;stroke:#999;stroke-miterlimit:10"></rect><rect x="310.22" y="184.33" width="11.45" height="11.45" style="fill:none;stroke:#999;stroke-miterlimit:10"></rect><rect x="294.23" y="201.6" width="11.45" height="11.45" style="fill:none;stroke:#999;stroke-miterlimit:10"></rect><rect x="342.2" y="201.6" width="11.45" height="11.45" style="fill:none;stroke:#999;stroke-miterlimit:10"></rect><rect x="326.21" y="218.98" width="11.45" height="11.45" transform="translate(3.25 -4.73) rotate(0.82)" style="fill:none;stroke:#999;stroke-miterlimit:10"></rect><rect x="310.22" y="235.72" width="11.45" height="11.45" style="fill:none;stroke:#999;stroke-miterlimit:10"></rect><rect x="326.21" y="252.99" width="11.45" height="11.45" style="fill:none;stroke:#999;stroke-miterlimit:10"></rect><rect x="342.2" y="252.99" width="11.45" height="11.45" style="fill:none;stroke:#999;stroke-miterlimit:10"></rect><rect x="310.22" y="270.26" width="11.45" height="11.45" style="fill:none;stroke:#999;stroke-miterlimit:10"></rect><rect x="294.23" y="287.52" width="11.45" height="11.45" style="fill:none;stroke:#999;stroke-miterlimit:10"></rect><rect x="326.21" y="304.9" width="11.45" height="11.45" transform="translate(4.49 -4.73) rotate(0.82)" style="fill:none;stroke:#999;stroke-miterlimit:10"></rect><rect x="342.2" y="219.21" width="11.45" height="11.45" transform="translate(3.26 -4.96) rotate(0.82)" style="fill:none;stroke:#999;stroke-miterlimit:10"></rect><g style="clip-path:url(#freepik--clip-path-2--inject-129)"><polygon points="454.07 91.82 454.07 77.68 425.47 77.68 425.47 91.82 378 91.82 378 406.69 460.99 406.69 460.99 91.82 454.07 91.82" style="fill:none;stroke:#999;stroke-miterlimit:10;opacity:0.30000000000000004"></polygon></g><polygon points="454.07 91.82 454.07 77.68 425.47 77.68 425.47 91.82 378 91.82 378 406.69 460.99 406.69 460.99 91.82 454.07 91.82" style="fill:none;stroke:#999;stroke-linecap:round;stroke-linejoin:round;stroke-width:0.75px"></polygon><rect x="421.93" y="109.71" width="12.26" height="12.26" style="fill:none;stroke:#999;stroke-miterlimit:10"></rect><rect x="404.81" y="128.19" width="12.26" height="12.26" style="fill:none;stroke:#999;stroke-miterlimit:10"></rect><rect x="439.04" y="128.19" width="12.26" height="12.26" style="fill:none;stroke:#999;stroke-miterlimit:10"></rect><rect x="387.69" y="146.68" width="12.26" height="12.26" style="fill:none;stroke:#999;stroke-miterlimit:10"></rect><rect x="421.93" y="146.68" width="12.26" height="12.26" style="fill:none;stroke:#999;stroke-miterlimit:10"></rect><rect x="439.04" y="146.68" width="12.26" height="12.26" style="fill:none;stroke:#999;stroke-miterlimit:10"></rect><rect x="387.69" y="183.65" width="12.26" height="12.26" style="fill:none;stroke:#999;stroke-miterlimit:10"></rect><rect x="421.93" y="183.65" width="12.26" height="12.26" style="fill:none;stroke:#999;stroke-miterlimit:10"></rect><rect x="404.81" y="202.14" width="12.26" height="12.26" style="fill:none;stroke:#999;stroke-miterlimit:10"></rect><rect x="439.04" y="202.14" width="12.26" height="12.26" style="fill:none;stroke:#999;stroke-miterlimit:10"></rect><rect x="439.04" y="220.62" width="12.26" height="12.26" style="fill:none;stroke:#999;stroke-miterlimit:10"></rect><rect x="387.69" y="239.11" width="12.26" height="12.26" style="fill:none;stroke:#999;stroke-miterlimit:10"></rect><rect x="404.81" y="239.11" width="12.26" height="12.26" style="fill:none;stroke:#999;stroke-miterlimit:10"></rect><rect x="421.93" y="257.72" width="12.26" height="12.26" transform="translate(3.82 -6.1) rotate(0.82)" style="fill:none;stroke:#999;stroke-miterlimit:10"></rect><rect x="387.69" y="276.08" width="12.26" height="12.26" style="fill:none;stroke:#999;stroke-miterlimit:10"></rect></g><g id="freepik--Tree--inject-129"><path d="M269.89,211.65c-2.23-7.13-9.37-11.59-9.37-11.59a13.74,13.74,0,0,0,9.37-7.56,46.84,46.84,0,0,0-8.92-7.61c4,0,7.58-5.35,7.58-5.35-4.91-8-14.27-8.8-14.27-8.8,8.92-1.66,6.24-11.27,6.24-11.27-3.57-5.8-16.95-1.34-16.95-1.34,8-4.9,2.68-12.93,2.68-12.93-10.71-3.57-20.07,2.67-20.07,2.67,2.67-7.13-2.68-12.93-2.68-12.93a14.27,14.27,0,0,0-5.67.68,26.64,26.64,0,0,0-7.56-7.7,13.73,13.73,0,0,0,9.36-7.55,46.69,46.69,0,0,0-8.92-7.62c4,0,7.59-5.35,7.59-5.35-4.91-8-14.28-8.79-14.28-8.79,8.92-1.67,6.25-11.28,6.25-11.28-3.57-5.8-17-1.34-17-1.34,8-4.9,2.67-12.93,2.67-12.93-10.7-3.57-20.07,2.68-20.07,2.68,2.68-7.14-2.67-12.94-2.67-12.94-10.71-.89-17.84,10.71-17.84,10.71C149.83,62.13,144.15,66,144.15,66a18.56,18.56,0,0,0-3.46,12.55c-5.68-4.67-13.24-5.17-13.24-5.17a46.6,46.6,0,0,0-.8,11.7c-2.39-3.23-8.82-2.91-8.82-2.91-2.58,6.4.24,13.54,1.94,16.9-.16.25-.32.5-.47.75-6.24-4.1-12.81.75-12.81.75-1,2.57.49,5.66,2.66,8.42a32.88,32.88,0,0,0-8.61-2.08,55.58,55.58,0,0,0-1,13.91c-2.84-3.83-10.48-3.45-10.48-3.45-2.2,5.44-1.1,11.33.44,15.71a20.36,20.36,0,0,0-6,3.33,16.64,16.64,0,0,0-8,2.84,6.28,6.28,0,0,0-.27.94c-5.16-7.82-9.91-4.65-9.91-4.65a19.45,19.45,0,0,0-3.61,13.1c-5.92-4.87-13.81-5.4-13.81-5.4a48.68,48.68,0,0,0-.83,12.2c-2.5-3.36-9.2-3-9.2-3C34.3,161.46,41.14,172,41.14,172c-6.94-6.44-15-.47-15-.47C23.51,178.15,36.94,188,36.94,188c-9.1-3.68-13.89,4.38-13.89,4.38,3.66,11.19,17,14.91,17,14.91-7.65,2.19-11.41,10.53-11.41,10.53,5.9,9.52,23.41,4.41,23.41,4.41s-7.86,4.42-8.09,11.63c0,0,9.54,2.56,14.66-1.62,0,0-1.63,7.66,2.32,12.44,0,0,7.21-3.6,7.45-7.56,0,0,4.88,9.07,10.23,10.24a9.29,9.29,0,0,0,4.19-7.21s10.93,10.93,17.21,10c0,0,2.1-7.21.47-10.94,0,0,8.14,1.4,12.56.94,0,0,.93-5.59-.93-9.08,0,0,7.44,3.49,12.79.93,0,0-.46-6.51-1.86-9.3a33.43,33.43,0,0,0,8.94,1.28,9.53,9.53,0,0,0,3.43,1.63,10.6,10.6,0,0,0,4.78-8.22s12.46,12.47,19.62,11.41a32,32,0,0,0,1.18-9.57c6.8,6,20.58,2,20.58,2s-7.54,4.24-7.76,11.15c0,0,9.15,2.46,14-1.56,0,0-1.56,7.35,2.23,11.93,0,0,6.91-3.45,7.14-7.25,0,0,4.68,8.7,9.81,9.82a8.9,8.9,0,0,0,4-6.92S221.5,248.9,227.52,248c0,0,2-6.91.44-10.48,0,0,7.81,1.34,12,.89,0,0,.9-5.35-.89-8.69,0,0,7.14,3.34,12.27.89,0,0-.45-6.25-1.79-8.92,0,0,6.69,2,11.38.89-1.79-7.58-6.69-9.22-6.69-9.22C264.09,215.06,269.89,211.65,269.89,211.65Z" style="fill:#92E3A9"></path><g style="clip-path:url(#freepik--clip-path-3--inject-129)"><path d="M269.89,211.65c-2.23-7.13-9.37-11.59-9.37-11.59a13.74,13.74,0,0,0,9.37-7.56,46.84,46.84,0,0,0-8.92-7.61c4,0,7.58-5.35,7.58-5.35-4.91-8-14.27-8.8-14.27-8.8,8.92-1.66,6.24-11.27,6.24-11.27-3.57-5.8-16.95-1.34-16.95-1.34,8-4.9,2.68-12.93,2.68-12.93-10.71-3.57-20.07,2.67-20.07,2.67,2.67-7.13-2.68-12.93-2.68-12.93a14.27,14.27,0,0,0-5.67.68,26.64,26.64,0,0,0-7.56-7.7,13.73,13.73,0,0,0,9.36-7.55,46.69,46.69,0,0,0-8.92-7.62c4,0,7.59-5.35,7.59-5.35-4.91-8-14.28-8.79-14.28-8.79,8.92-1.67,6.25-11.28,6.25-11.28-3.57-5.8-17-1.34-17-1.34,8-4.9,2.67-12.93,2.67-12.93-10.7-3.57-20.07,2.68-20.07,2.68,2.68-7.14-2.67-12.94-2.67-12.94-10.71-.89-17.84,10.71-17.84,10.71C149.83,62.13,144.15,66,144.15,66a18.56,18.56,0,0,0-3.46,12.55c-5.68-4.67-13.24-5.17-13.24-5.17a46.6,46.6,0,0,0-.8,11.7c-2.39-3.23-8.82-2.91-8.82-2.91-2.58,6.4.24,13.54,1.94,16.9-.16.25-.32.5-.47.75-6.24-4.1-12.81.75-12.81.75-1,2.57.49,5.66,2.66,8.42a32.88,32.88,0,0,0-8.61-2.08,55.58,55.58,0,0,0-1,13.91c-2.84-3.83-10.48-3.45-10.48-3.45-2.2,5.44-1.1,11.33.44,15.71a20.36,20.36,0,0,0-6,3.33,16.64,16.64,0,0,0-8,2.84,6.28,6.28,0,0,0-.27.94c-5.16-7.82-9.91-4.65-9.91-4.65a19.45,19.45,0,0,0-3.61,13.1c-5.92-4.87-13.81-5.4-13.81-5.4a48.68,48.68,0,0,0-.83,12.2c-2.5-3.36-9.2-3-9.2-3C34.3,161.46,41.14,172,41.14,172c-6.94-6.44-15-.47-15-.47C23.51,178.15,36.94,188,36.94,188c-9.1-3.68-13.89,4.38-13.89,4.38,3.66,11.19,17,14.91,17,14.91-7.65,2.19-11.41,10.53-11.41,10.53,5.9,9.52,23.41,4.41,23.41,4.41s-7.86,4.42-8.09,11.63c0,0,9.54,2.56,14.66-1.62,0,0-1.63,7.66,2.32,12.44,0,0,7.21-3.6,7.45-7.56,0,0,4.88,9.07,10.23,10.24a9.29,9.29,0,0,0,4.19-7.21s10.93,10.93,17.21,10c0,0,2.1-7.21.47-10.94,0,0,8.14,1.4,12.56.94,0,0,.93-5.59-.93-9.08,0,0,7.44,3.49,12.79.93,0,0-.46-6.51-1.86-9.3a33.43,33.43,0,0,0,8.94,1.28,9.53,9.53,0,0,0,3.43,1.63,10.6,10.6,0,0,0,4.78-8.22s12.46,12.47,19.62,11.41a32,32,0,0,0,1.18-9.57c6.8,6,20.58,2,20.58,2s-7.54,4.24-7.76,11.15c0,0,9.15,2.46,14-1.56,0,0-1.56,7.35,2.23,11.93,0,0,6.91-3.45,7.14-7.25,0,0,4.68,8.7,9.81,9.82a8.9,8.9,0,0,0,4-6.92S221.5,248.9,227.52,248c0,0,2-6.91.44-10.48,0,0,7.81,1.34,12,.89,0,0,.9-5.35-.89-8.69,0,0,7.14,3.34,12.27.89,0,0-.45-6.25-1.79-8.92,0,0,6.69,2,11.38.89-1.79-7.58-6.69-9.22-6.69-9.22C264.09,215.06,269.89,211.65,269.89,211.65Z" style="fill:#fff;opacity:0.2"></path><g style="opacity:0.2"><path d="M209.76,100.19l-.09,0,.07.11Z"></path><path d="M147.17,65.38a4.72,4.72,0,0,0-3,.57,18.1,18.1,0,0,0-2.47,4.73A29.19,29.19,0,0,1,147.17,65.38Z"></path><path d="M269.89,211.65c-2.23-7.13-9.37-11.59-9.37-11.59.28-.07.53-.16.79-.24a38.1,38.1,0,0,1-5.41-2.55s4.89,3.87,3.81,13.19c-5.76-.65-12.53-5.66-12.53-5.66.43,3.58-1.62,10.85-1.62,10.85-6.82.68-13.54-6-13.54-6,.65,4.52-2.55,10.22-2.55,10.22-5-1.22-13.29-5.93-13.29-5.93.31,4.68-4.79,11.7-4.79,11.7C204.2,224.16,196.6,208,196.6,208a10.74,10.74,0,0,1-7.38,6.2c-5.36-3.36-7.11-15.14-7.11-15.14-1.8,4.21-11.05,5.3-11.05,5.3-2.43-6.74,2.34-14.44,2.34-14.44-7.2,2.55-16.56-4-16.56-4a13.55,13.55,0,0,1,5.26-6.19c-6.36.08-16.48-10-16.48-10a9.29,9.29,0,0,1-4.19,7.21c-3.36-.73-6.54-4.58-8.44-7.34a27.85,27.85,0,0,1-4.41,1.38,22.1,22.1,0,0,1-2.93,2.18,45.72,45.72,0,0,1,3.87,6.48c-4,4.36-12.22,3.89-12.22,3.89,3,2.55,4.23,8.08,4.23,8.08-3.93,2.07-12,3.8-12,3.8,2.89,2.85,3.63,10.32,3.63,10.32-5.48,3.2-19.7-2.88-19.7-2.88a9.3,9.3,0,0,1-1.2,8.25C86.86,212,79,205.39,79,205.39c1.25,3.75-4.1,9.78-4.1,9.78-5.45-3-6.79-10.69-6.79-10.69-3.19,5.79-13,7-13,7-2.46-6.78,3.19-13.8,3.19-13.8s-14.36,11.25-23.38,4.61c0,0,.4-9.14,6.68-14a31.61,31.61,0,0,1-10.78-1.06,11.9,11.9,0,0,0-7.72,5.21c3.66,11.19,17,14.91,17,14.91-7.65,2.19-11.41,10.53-11.41,10.53,5.9,9.52,23.41,4.41,23.41,4.41s-7.86,4.42-8.09,11.63c0,0,9.54,2.56,14.66-1.62,0,0-1.63,7.66,2.32,12.44,0,0,7.21-3.6,7.45-7.56,0,0,4.88,9.07,10.23,10.24a9.29,9.29,0,0,0,4.19-7.21s10.93,10.93,17.21,10c0,0,2.1-7.21.47-10.94,0,0,8.14,1.4,12.56.94,0,0,.93-5.59-.93-9.08,0,0,7.44,3.49,12.79.93,0,0-.46-6.51-1.86-9.3a33.43,33.43,0,0,0,8.94,1.28,9.53,9.53,0,0,0,3.43,1.63,10.6,10.6,0,0,0,4.78-8.22s12.46,12.47,19.62,11.41a32,32,0,0,0,1.18-9.57c6.8,6,20.58,2,20.58,2s-7.54,4.24-7.76,11.15c0,0,9.15,2.46,14-1.56,0,0-1.56,7.35,2.23,11.93,0,0,6.91-3.45,7.14-7.25,0,0,4.68,8.7,9.81,9.82a8.9,8.9,0,0,0,4-6.92S221.5,248.9,227.52,248c0,0,2-6.91.44-10.48,0,0,7.81,1.34,12,.89,0,0,.9-5.35-.89-8.69,0,0,7.14,3.34,12.27.89,0,0-.45-6.25-1.79-8.92,0,0,6.69,2,11.38.89-1.79-7.58-6.69-9.22-6.69-9.22C264.09,215.06,269.89,211.65,269.89,211.65Z"></path><path d="M25.84,172.8a11.71,11.71,0,0,1,5.7-1.34s-1.41-.36-3.39-1.05a13.37,13.37,0,0,0-2,1.15A4.8,4.8,0,0,0,25.84,172.8Z"></path><path d="M170.19,176.45a46.41,46.41,0,0,1-6.49-1,35.34,35.34,0,0,1-.73,3.76A23.65,23.65,0,0,1,170.19,176.45Z"></path></g></g><path d="M91.17,190.74h0a1.9,1.9,0,0,1,2,.65l21.56,27.82-2-32.51a1.83,1.83,0,0,1,1-1.77h0a1.83,1.83,0,0,1,2.61,1.51c.58,7.6,2.42,29.4,5,37.24,2.76,8.5,17.13,31.38,17.13,31.38s12.81-16,13.77-22.54c1.55-10.7-8.51-38.11-12.22-47.71a2.35,2.35,0,0,1,2.32-3.19h0a2.36,2.36,0,0,1,2.05,1.46l15.64,38s7.54-10.38,8.59-15.41c1.1-5.34-2-19.38-3.26-24.87a2.5,2.5,0,0,1,1.67-3h0a2.51,2.51,0,0,1,3.22,1.87l4.94,23.56,31.15-15.07a1.85,1.85,0,0,1,2,.22h0a1.85,1.85,0,0,1-.22,3.06c-6.58,3.78-25,14.58-30.52,20.39-10.58,11.05-23.93,39.86-27.2,54.8-7.49,34.19,4.12,140,4.12,140H120.42s12.49-108.83,6.71-144.53c-1.45-9-13-33.87-13-33.87l-24-34.65A1.9,1.9,0,0,1,91.17,190.74Z" style="fill:#999"></path></g><g id="freepik--Floor--inject-129"><g id="freepik--Shadow--inject-129"><path d="M426.87,416.78c-7-3.73-14.52-7.2-21.15-10.09h-317s-39,20.58-20.78,20.58,53.82-4.21,45.75,3.87S141.52,436,168.52,436s-.45,14.14,20,14.14h144.2c15.17,0-13-21.71,4.32-21.71h55.72C423.84,428.4,445.93,426.87,426.87,416.78Z" style="fill:#92E3A9"></path><path d="M154.21,456.94H108.87a2,2,0,0,1-1.54-3.31l6.18-7.31a4.23,4.23,0,0,1,3.23-1.5h42a2,2,0,0,1,1.89,2.72l-2.5,6.66A4.23,4.23,0,0,1,154.21,456.94Z" style="fill:#92E3A9"></path><path d="M104.3,448.09H82.51a2,2,0,0,1-1.17-3.66l2.29-1.62a4.2,4.2,0,0,1,2.45-.78h21.36a2,2,0,0,1,1.33,3.52L107.11,447A4.21,4.21,0,0,1,104.3,448.09Z" style="fill:#92E3A9"></path><path d="M185.81,464.14H162.6a2,2,0,0,1-1.9-2.67l1-2.8a4.22,4.22,0,0,1,4-2.87h22.68a2,2,0,0,1,2,2.29l-.32,2.39A4.24,4.24,0,0,1,185.81,464.14Z" style="fill:#92E3A9"></path><path d="M383.94,462.09h41.11a3.68,3.68,0,0,0,2-6.8l-4.7-2.94A15.63,15.63,0,0,0,414,450H374.41a3.68,3.68,0,0,0-2.94,5.89h0A15.59,15.59,0,0,0,383.94,462.09Z" style="fill:#92E3A9"></path><path d="M380.29,445.73H404a1,1,0,0,0,.59-1.86l-4-2.81a7.52,7.52,0,0,0-4.34-1.39H373.31a1,1,0,0,0-.68,1.79l2.69,2.38A7.47,7.47,0,0,0,380.29,445.73Z" style="fill:#92E3A9"></path><path d="M348.39,448h21.08a1.81,1.81,0,0,0,1.36-3l-2.41-2.72a7.79,7.79,0,0,0-5.82-2.61H342.28a1.81,1.81,0,0,0-1.59,2.68l.88,1.61A7.76,7.76,0,0,0,348.39,448Z" style="fill:#92E3A9"></path></g><line x1="473.17" y1="406.69" x2="31.85" y2="406.69" style="fill:none;stroke:#263238;stroke-linecap:round;stroke-linejoin:round"></line></g><g id="freepik--Plant--inject-129"><path d="M462,351.6s4.59-4.71,2.78-9.13-5.43-2.77-5.43-2.77,5.11-7,1-9.55-7.59,1.64-7.59,1.64,3.69-9.5-1-10.8-6.82,3-6.82,3,2.34-10.16-1.56-10.16-5.2,6.26-5.2,6.26-2.33-6.32-6-5.28-1.3,8.4-1.3,8.4-4.07-4.7-7.19-2.62c-1.75,1.16-1.24,3.24-.45,4.83a7.86,7.86,0,0,0-1.26.45,8,8,0,0,0-1.27-.45c.79-1.59,1.3-3.67-.45-4.83-3.11-2.08-7.18,2.62-7.18,2.62s2.33-7.36-1.3-8.4-6,5.28-6,5.28-1.3-6.26-5.2-6.26S399,324,399,324s-1.71-3.42-5.41-3.22a1.32,1.32,0,0,0-.22-.18c-3.11-2.08-7.18,2.62-7.18,2.62s2.33-7.36-1.3-8.4-6,5.28-6,5.28-.32-3.31-4.22-3.31-2.54,7.21-2.54,7.21a5.89,5.89,0,0,0-6.81-3c-4.68,1.3-1,10.8-1,10.8s-3.44-4.24-7.6-1.64,1,9.55,1,9.55-3.61-1.64-5.43,2.77,2.77,9.13,2.77,9.13c-12.5,5.36,2.8,14,2.8,14h101.3S474.49,357,462,351.6Z" style="fill:#92E3A9;stroke:#263238;stroke-linecap:round;stroke-linejoin:round;stroke-width:0.75px"></path><path d="M326.28,365.57s-15.3-8.61-2.8-14c0,0-4.59-4.71-2.77-9.13s5.43-2.77,5.43-2.77-5.11-7-1-9.55,7.6,1.64,7.6,1.64-3.7-9.5,1-10.8a5.89,5.89,0,0,1,6.81,3s-2.34-10.16,1.56-10.16,5.2,6.26,5.2,6.26,2.34-6.32,6-5.28,1.3,8.4,1.3,8.4,4.07-4.7,7.19-2.62-1,7-1,7,4.65-4.21,7.25-1.36-3.09,7.6-3.09,7.6,4.65-1.42,5.95,2-3.15,5.89-3.15,5.89,2.82-.23,4.25,3.67-4.82,4.65-4.82,4.65,4.42-.64,4.95,2.74-4.69,4.74-4.69,4.74,3.14-.48,3.66,2.33-5.63,5.72-5.63,5.72Z" style="fill:#92E3A9"></path><g style="clip-path:url(#freepik--clip-path-4--inject-129)"><path d="M326.28,365.57s-15.3-8.61-2.8-14c0,0-4.59-4.71-2.77-9.13s5.43-2.77,5.43-2.77-5.11-7-1-9.55,7.6,1.64,7.6,1.64-3.7-9.5,1-10.8a5.89,5.89,0,0,1,6.81,3s-2.34-10.16,1.56-10.16,5.2,6.26,5.2,6.26,2.34-6.32,6-5.28,1.3,8.4,1.3,8.4,4.07-4.7,7.19-2.62-1,7-1,7,4.65-4.21,7.25-1.36-3.09,7.6-3.09,7.6,4.65-1.42,5.95,2-3.15,5.89-3.15,5.89,2.82-.23,4.25,3.67-4.82,4.65-4.82,4.65,4.42-.64,4.95,2.74-4.69,4.74-4.69,4.74,3.14-.48,3.66,2.33-5.63,5.72-5.63,5.72Z" style="fill:#fff;opacity:0.4"></path></g><path d="M326.28,365.57s-15.3-8.61-2.8-14c0,0-4.59-4.71-2.77-9.13s5.43-2.77,5.43-2.77-5.11-7-1-9.55,7.6,1.64,7.6,1.64-3.7-9.5,1-10.8a5.89,5.89,0,0,1,6.81,3s-2.34-10.16,1.56-10.16,5.2,6.26,5.2,6.26,2.34-6.32,6-5.28,1.3,8.4,1.3,8.4,4.07-4.7,7.19-2.62-1,7-1,7,4.65-4.21,7.25-1.36-3.09,7.6-3.09,7.6,4.65-1.42,5.95,2-3.15,5.89-3.15,5.89,2.82-.23,4.25,3.67-4.82,4.65-4.82,4.65,4.42-.64,4.95,2.74-4.69,4.74-4.69,4.74,3.14-.48,3.66,2.33-5.63,5.72-5.63,5.72Z" style="fill:none;stroke:#263238;stroke-linecap:round;stroke-linejoin:round;stroke-width:0.75px"></path><path d="M429.53,365.57s15.9-8.61,3.77-14c0,0,4.92-4.71,3.41-9.13s-5.23-2.77-5.23-2.77,5.6-7,1.62-9.55-7.71,1.64-7.71,1.64,4.36-9.5-.23-10.8-7,3-7,3,3.05-10.16-.85-10.16-5.63,6.26-5.63,6.26-1.9-6.32-5.61-5.28-1.89,8.4-1.89,8.4-3.74-4.7-7-2.62.46,7,.46,7-4.36-4.21-7.15-1.36,2.55,7.6,2.55,7.6-4.55-1.42-6.08,2,2.73,5.89,2.73,5.89-2.8-.23-4.51,3.67,4.51,4.65,4.51,4.65-4.39-.64-5.15,2.74,4.36,4.74,4.36,4.74-3.11-.48-3.82,2.33,5.23,5.72,5.23,5.72Z" style="fill:#92E3A9"></path><g style="clip-path:url(#freepik--clip-path-5--inject-129)"><path d="M429.53,365.57s15.9-8.61,3.77-14c0,0,4.92-4.71,3.41-9.13s-5.23-2.77-5.23-2.77,5.6-7,1.62-9.55-7.71,1.64-7.71,1.64,4.36-9.5-.23-10.8-7,3-7,3,3.05-10.16-.85-10.16-5.63,6.26-5.63,6.26-1.9-6.32-5.61-5.28-1.89,8.4-1.89,8.4-3.74-4.7-7-2.62.46,7,.46,7-4.36-4.21-7.15-1.36,2.55,7.6,2.55,7.6-4.55-1.42-6.08,2,2.73,5.89,2.73,5.89-2.8-.23-4.51,3.67,4.51,4.65,4.51,4.65-4.39-.64-5.15,2.74,4.36,4.74,4.36,4.74-3.11-.48-3.82,2.33,5.23,5.72,5.23,5.72Z" style="fill:#fff;opacity:0.4"></path></g><path d="M429.53,365.57s15.9-8.61,3.77-14c0,0,4.92-4.71,3.41-9.13s-5.23-2.77-5.23-2.77,5.6-7,1.62-9.55-7.71,1.64-7.71,1.64,4.36-9.5-.23-10.8-7,3-7,3,3.05-10.16-.85-10.16-5.63,6.26-5.63,6.26-1.9-6.32-5.61-5.28-1.89,8.4-1.89,8.4-3.74-4.7-7-2.62.46,7,.46,7-4.36-4.21-7.15-1.36,2.55,7.6,2.55,7.6-4.55-1.42-6.08,2,2.73,5.89,2.73,5.89-2.8-.23-4.51,3.67,4.51,4.65,4.51,4.65-4.39-.64-5.15,2.74,4.36,4.74,4.36,4.74-3.11-.48-3.82,2.33,5.23,5.72,5.23,5.72Z" style="fill:none;stroke:#263238;stroke-linecap:round;stroke-linejoin:round;stroke-width:0.75px"></path><path d="M316,366.89H469.65a0,0,0,0,1,0,0v37.27a2.52,2.52,0,0,1-2.52,2.52H318.48a2.52,2.52,0,0,1-2.52-2.52V366.89A0,0,0,0,1,316,366.89Z" style="fill:#999;stroke:#263238;stroke-linecap:round;stroke-linejoin:round;stroke-width:0.75px"></path><rect x="311.8" y="362.83" width="162.01" height="8.12" rx="1.91" style="fill:#757575;stroke:#263238;stroke-linecap:round;stroke-linejoin:round;stroke-width:0.75px"></rect></g><g id="freepik--Bench--inject-129"><path d="M197.18,267.41a1.23,1.23,0,0,0-1.68-.46,19.16,19.16,0,0,0-9.24,12.28l-9,39.17a6.6,6.6,0,0,1-6.27,5.06H132.79A5.11,5.11,0,0,0,127.6,328a4.94,4.94,0,0,0,4.77,5.27,3.89,3.89,0,0,0,3.87-3,3.81,3.81,0,0,0-1.76-4.1.17.17,0,0,1,.09-.31h34c7.79,0,14.6,5.87,15.12,13.64a14.65,14.65,0,0,1-14.6,15.63H132.53a1.24,1.24,0,0,0,0,2.47h9.92a10.4,10.4,0,0,0-3.65,6.51l-10,69.63a1.22,1.22,0,0,0,1,1.39,1.25,1.25,0,0,0,1.4-1l6.38-44.71h42.1l6.39,44.71a1.23,1.23,0,0,0,1.21,1.06l.18,0a1.22,1.22,0,0,0,1-1.39l-9.94-69.63a10.48,10.48,0,0,0-4.67-7.25,17.08,17.08,0,0,0,1.41-32.22,9,9,0,0,0,4.25-5.75l9-39.17a16.7,16.7,0,0,1,8.05-10.69A1.24,1.24,0,0,0,197.18,267.41ZM133.87,329.5a1.36,1.36,0,0,1-1.36,1.35,2.46,2.46,0,0,1-1.26-4.57c.11-.07.19,0,.15.12a1.1,1.1,0,0,0-.12.51,1.23,1.23,0,0,0,1.23,1.23A1.36,1.36,0,0,1,133.87,329.5Zm42.34,35L179.42,387H138l3.21-22.46a8,8,0,0,1,7.91-6.86H168.3A8,8,0,0,1,176.21,364.52Z" style="fill:#999;stroke:#263238;stroke-linecap:round;stroke-linejoin:round"></path><polygon points="183.89 262.68 163.33 351.31 116.92 351.31 113.64 361.8 396.92 361.8 419.12 262.68 183.89 262.68" style="fill:#92E3A9"></polygon><g style="clip-path:url(#freepik--clip-path-6--inject-129)"><polygon points="183.89 262.68 163.33 351.31 116.92 351.31 113.64 361.8 396.92 361.8 419.12 262.68 183.89 262.68" style="opacity:0.2"></polygon></g><polygon points="183.89 262.68 163.33 351.31 116.92 351.31 113.64 361.8 396.92 361.8 419.12 262.68 183.89 262.68" style="fill:none;stroke:#263238;stroke-linecap:round;stroke-linejoin:round"></polygon><polygon points="396.92 361.8 399.27 351.31 163.33 351.31 116.92 351.31 113.64 361.8 396.92 361.8" style="fill:#92E3A9"></polygon><g style="clip-path:url(#freepik--clip-path-7--inject-129)"><polygon points="396.92 361.8 399.27 351.31 163.33 351.31 116.92 351.31 113.64 361.8 396.92 361.8" style="opacity:0.30000000000000004"></polygon></g><polygon points="396.92 361.8 399.27 351.31 163.33 351.31 116.92 351.31 113.64 361.8 396.92 361.8" style="fill:none;stroke:#263238;stroke-linecap:round;stroke-linejoin:round"></polygon><polygon points="408.63 262.68 388.07 351.31 341.66 351.31 338.38 361.8 396.92 361.8 419.12 262.68 408.63 262.68" style="fill:#92E3A9;stroke:#263238;stroke-linecap:round;stroke-linejoin:round"></polygon><path d="M420.27,267.41a1.23,1.23,0,0,0-1.68-.46,19.15,19.15,0,0,0-9.23,12.28l-9,39.17a6.6,6.6,0,0,1-6.27,5.06H355.89A5.11,5.11,0,0,0,350.7,328a4.94,4.94,0,0,0,4.77,5.27,3.89,3.89,0,0,0,3.87-3,3.82,3.82,0,0,0-1.76-4.1.17.17,0,0,1,.09-.31h34c7.78,0,14.6,5.87,15.12,13.64a14.65,14.65,0,0,1-14.6,15.63H355.63a1.24,1.24,0,1,0,0,2.47h9.92a10.46,10.46,0,0,0-3.66,6.51l-9.95,69.63a1.23,1.23,0,0,0,2.44.35l6.39-44.71h42.1l6.38,44.71a1.24,1.24,0,0,0,1.22,1.06l.18,0a1.22,1.22,0,0,0,1-1.39l-9.95-69.63a10.43,10.43,0,0,0-4.66-7.25,17.08,17.08,0,0,0,1.41-32.22,9.07,9.07,0,0,0,4.25-5.75l9-39.17a16.67,16.67,0,0,1,8.05-10.69A1.23,1.23,0,0,0,420.27,267.41ZM357,329.5a1.36,1.36,0,0,1-1.36,1.35,2.46,2.46,0,0,1-1.26-4.57c.1-.07.19,0,.14.12a1.23,1.23,0,0,0,1.12,1.74A1.36,1.36,0,0,1,357,329.5Zm42.34,35,3.2,22.46H361.12l3.21-22.46a8,8,0,0,1,7.91-6.86H391.4A8,8,0,0,1,399.31,364.52Z" style="fill:#999;stroke:#263238;stroke-linecap:round;stroke-linejoin:round"></path><line x1="392.88" y1="279.23" x2="399.27" y2="279.23" style="fill:none;stroke:#263238;stroke-linecap:round;stroke-linejoin:round;stroke-width:0.75px"></line><line x1="273.52" y1="279.23" x2="387.18" y2="279.23" style="fill:none;stroke:#263238;stroke-linecap:round;stroke-linejoin:round;stroke-width:0.75px"></line><line x1="201.6" y1="279.23" x2="266.38" y2="279.23" style="fill:none;stroke:#263238;stroke-linecap:round;stroke-linejoin:round;stroke-width:0.75px"></line><line x1="186.26" y1="279.23" x2="196.36" y2="279.23" style="fill:none;stroke:#263238;stroke-linecap:round;stroke-linejoin:round;stroke-width:0.75px"></line><line x1="364.41" y1="336.05" x2="385.56" y2="336.05" style="fill:none;stroke:#263238;stroke-linecap:round;stroke-linejoin:round;stroke-width:0.75px"></line><line x1="244.24" y1="336.05" x2="348.96" y2="336.05" style="fill:none;stroke:#263238;stroke-linecap:round;stroke-linejoin:round;stroke-width:0.75px"></line><line x1="179.73" y1="336.05" x2="239.18" y2="336.05" style="fill:none;stroke:#263238;stroke-linecap:round;stroke-linejoin:round;stroke-width:0.75px"></line><line x1="172.55" y1="336.05" x2="176.12" y2="336.05" style="fill:none;stroke:#263238;stroke-linecap:round;stroke-linejoin:round;stroke-width:0.75px"></line><line x1="390.44" y1="296.48" x2="395.32" y2="296.48" style="fill:none;stroke:#263238;stroke-linecap:round;stroke-linejoin:round;stroke-width:0.75px"></line><line x1="227.44" y1="296.48" x2="385.56" y2="296.48" style="fill:none;stroke:#263238;stroke-linecap:round;stroke-linejoin:round;stroke-width:0.75px"></line><line x1="191.31" y1="296.48" x2="221.47" y2="296.48" style="fill:none;stroke:#263238;stroke-linecap:round;stroke-linejoin:round;stroke-width:0.75px"></line><line x1="182.31" y1="296.48" x2="186.26" y2="296.48" style="fill:none;stroke:#263238;stroke-linecap:round;stroke-linejoin:round;stroke-width:0.75px"></line><line x1="206.39" y1="316.26" x2="390.44" y2="316.26" style="fill:none;stroke:#263238;stroke-linecap:round;stroke-linejoin:round;stroke-width:0.75px"></line><line x1="177.43" y1="316.26" x2="201.59" y2="316.26" style="fill:none;stroke:#263238;stroke-linecap:round;stroke-linejoin:round;stroke-width:0.75px"></line></g><g id="freepik--character-1--inject-129"><g id="freepik--Coffee--inject-129"><polygon points="196.77 351.31 180.28 351.31 178 310.46 199.05 310.46 196.77 351.31" style="fill:#fff;stroke:#263238;stroke-linecap:round;stroke-linejoin:round"></polygon><polygon points="201.14 310.46 175.91 310.46 177.04 306.29 200 306.29 201.14 310.46" style="fill:#fff;stroke:#263238;stroke-linecap:round;stroke-linejoin:round"></polygon><polygon points="197.62 336.08 198.51 320.14 178.54 320.14 179.43 336.08 197.62 336.08" style="fill:#92E3A9"></polygon><g style="clip-path:url(#freepik--clip-path-8--inject-129)"><path d="M198.37,322.59a5.51,5.51,0,0,0-.61,11Z" style="fill:#fff"></path></g><polygon points="197.62 336.08 198.51 320.14 178.54 320.14 179.43 336.08 197.62 336.08" style="fill:none;stroke:#263238;stroke-linecap:round;stroke-linejoin:round;stroke-width:0.75px"></polygon></g><path d="M328.34,195s4.49,18.11,8.75,25.36L316.64,233l-3.22-.24s-.77-8.21-3.18-11.46,11.05-18.66,11.05-18.66l4.27-6.21Z" style="fill:#fff"></path><g style="clip-path:url(#freepik--clip-path-9--inject-129)"><path d="M294.3,206.33c1.14,1.43,3.12,3.42,3.12,3.42s2.23,7.38,6.56,12.42c0,0,1.61,6.19,6,4.67s15.63-14,15.6-16.56a22.75,22.75,0,0,0-.47-4.45Z" style="fill:#263238;stroke:#263238;stroke-linecap:round;stroke-linejoin:round"></path></g><path d="M328.34,195s4.49,18.11,8.75,25.36L316.64,233l-3.22-.24s-.77-8.21-3.18-11.46,11.05-18.66,11.05-18.66l4.27-6.21Z" style="fill:none;stroke:#263238;stroke-linecap:round;stroke-linejoin:round"></path><path d="M295.73,189.32s-5.59-.22-5.58-5.93,6.16-7,6.16-7,2.37-3.85,5.44-1.2c0,0-1.78,2.26,1.6.68s4.56-3.81,11-3.06c0,0,11.53-1.82,15.59,5.28,0,0,4.46,5.65,3.52,16s1,16.12-.16,16.37-2.73-4.58-4.6-11.64l-9.91,5.4L311.35,199l-5.15-8.78-6.39,0Z" style="fill:#263238;stroke:#263238;stroke-linecap:round;stroke-linejoin:round"></path><path d="M293.49,191.89s0,9.12,1,10.67,2.7,3.76,2.7,3.76,1.36,7.59,5.06,13.1c0,0,.88,6.34,5.44,5.34s17.15-12.09,17.42-14.64a23.56,23.56,0,0,0,.05-4.47s2.28.95,4-3.63,1.32-10-2.26-10.24-3.37,3.55-4.85,3.87-.72,4.73-.72,4.73l-2.93.85s-.39-7-3.59-10.62-6.43-4.7-4.15-8.94c0,0-7.75.15-15.83,6.29Z" style="fill:#fff"></path><g style="clip-path:url(#freepik--clip-path-10--inject-129)"><path d="M324.44,211.49a61.13,61.13,0,0,0-2.72-10l-3.37.75s-.67,1.67-1.79,3.78-3.32,4.4-6.26,3.6a11.88,11.88,0,0,0-6,0c-1.08.26-2.15,1.89-3.17,2.37-1.38.64-1.89.27-2,1,.31.84.66,1.71,1.06,2.58a3.22,3.22,0,0,1,1.39-2.7c3-1.9,7.54-1.59,8.63-.73s1.49,2.72-1.3,5.27-2.35.79-4.55,1.76a2.46,2.46,0,0,0-1.37,2.6c.71,1.68,2.11,3.53,4.74,3C311.66,223.88,321.74,215.35,324.44,211.49Z" style="fill:#757575"></path></g><path d="M293.49,191.89s0,9.12,1,10.67,2.7,3.76,2.7,3.76,1.36,7.59,5.06,13.1c0,0,.88,6.34,5.44,5.34s17.15-12.09,17.42-14.64a23.56,23.56,0,0,0,.05-4.47s2.28.95,4-3.63,1.32-10-2.26-10.24-3.37,3.55-4.85,3.87-.72,4.73-.72,4.73l-2.93.85s-.39-7-3.59-10.62-6.43-4.7-4.15-8.94c0,0-7.75.15-15.83,6.29Z" style="fill:none;stroke:#263238;stroke-linecap:round;stroke-linejoin:round"></path><path d="M301.62,216s2.16-2.45,4.26-2.8,2.64-1.21,2.64-1.21" style="fill:none;stroke:#263238;stroke-linecap:round;stroke-linejoin:round;stroke-width:0.75px"></path><path d="M299.82,197.54a3.77,3.77,0,0,0,3.77-.31,11.55,11.55,0,0,1,5.22-1.27S306.22,193.12,299.82,197.54Z" style="fill:#263238;stroke:#263238;stroke-linecap:round;stroke-linejoin:round;stroke-width:0.75px"></path><path d="M306.6,200.75c.34.73.27,1.48-.15,1.68s-1-.24-1.38-1-.27-1.48.15-1.68S306.26,200,306.6,200.75Z" style="fill:#263238"></path><path d="M297.88,204.44c.29.63.23,1.29-.13,1.46s-.91-.21-1.2-.84-.24-1.29.13-1.46S297.58,203.8,297.88,204.44Z" style="fill:#263238"></path><path d="M296.36,200.18l1.13.53a1.17,1.17,0,0,1,.67,1.28l-1.28,7.11a1.19,1.19,0,0,0,1,1.38l2.62.41" style="fill:#fff;stroke:#263238;stroke-linecap:round;stroke-linejoin:round"></path><path d="M293.77,202.87s.32-1.62,3.65-1.63c0,0-1.58-1.52-3.24-1.05S293.77,202.87,293.77,202.87Z" style="fill:#263238;stroke:#263238;stroke-linecap:round;stroke-linejoin:round;stroke-width:0.75px"></path><path d="M261,251.31s4.08,46.93,19.28,48,17.19-7.17,20.32-12.07c0,0-12.71-13.23-12.87-11.3s-4.11,6.72-4.11,6.72c-1.36-5-7.19-15.31-9-20.1a52.78,52.78,0,0,1-2.45-11.23Z" style="fill:#fff;stroke:#263238;stroke-linecap:round;stroke-linejoin:round"></path><path d="M262.19,254.94a10,10,0,0,1-1-2.26c-.64-2,1.12-4.69,2.66-7.77,0,0-.63-6.34,3-6.83a3,3,0,0,1,2.62-2.18c2-.06,6.85-1.79,9.73-.31s7.91,6.15,7.26,7.5-1.3,2.2-5.5-.69l-2-1.27s3.24,3.73,2.57,5.59a5.58,5.58,0,0,1-2.92,2.77s-.15,2.36-2.15,2.23c0,0-.21,2.78-2,2.67l-2.15-.22s-3.3,3.18-6.47,3.08" style="fill:#fff;stroke:#263238;stroke-linecap:round;stroke-linejoin:round"></path><path d="M271.2,238.17a36.83,36.83,0,0,1,3.85.68,21.87,21.87,0,0,1,2.21,1.06" style="fill:#fff;stroke:#263238;stroke-linecap:round;stroke-linejoin:round;stroke-width:0.75px"></path><path d="M270.6,243.08s6.48.8,7.14,1.74a8.92,8.92,0,0,1,1,2.91" style="fill:#fff;stroke:#263238;stroke-linecap:round;stroke-linejoin:round;stroke-width:0.75px"></path><path d="M269.89,247.52s5.12.68,5.78,2.85" style="fill:#fff;stroke:#263238;stroke-linecap:round;stroke-linejoin:round;stroke-width:0.75px"></path><path d="M299.5,291.24c6.05-11.51,23.57-54.85,12.11-58.44,0,0-13.73,3.81-17.43,14.72-3,8.71-6.65,25.23-8,31.51Z" style="fill:#fff"></path><path d="M299.5,291.24c6.05-11.51,23.57-54.85,12.11-58.44,0,0-13.73,3.81-17.43,14.72-3,8.71-6.65,25.23-8,31.51Z" style="fill:none;stroke:#263238;stroke-linecap:round;stroke-linejoin:round"></path><path d="M285.21,277.17s8.86,1.2,15.84,12a1.05,1.05,0,0,1-.09,1.24l-.75.9-.4,1.14a1,1,0,0,1-1.82.27A58.43,58.43,0,0,0,284.94,280l.66-1.14Z" style="fill:#fff;stroke:#263238;stroke-linecap:round;stroke-linejoin:round"></path><path d="M234.93,391.77l8.17,20.43s6,10.79,7.09,20.86a2.67,2.67,0,0,1-2.67,2.91H197.83a2.49,2.49,0,0,1-2.31-3.41c1-2.54,3-5.49,6.91-4.95,6.68.93,16.37-4.58,21.36-10.83l2.22-1.61-6.87-16Z" style="fill:#fff;stroke:#263238;stroke-linecap:round;stroke-linejoin:round"></path><path d="M250.19,433.06c-.61-5.88-2.92-12-4.74-16.06-8.49,7.64-16.28,5.23-14.79,1.82s-4.65-3.65-4.65-3.65l-2.22,1.61c-5,6.25-14.68,11.76-21.36,10.83-3.91-.54-5.92,2.41-6.91,4.95a2.49,2.49,0,0,0,2.31,3.41h49.69A2.67,2.67,0,0,0,250.19,433.06Z" style="fill:#263238;stroke:#263238;stroke-linecap:round;stroke-linejoin:round"></path><path d="M288.23,303.74s-4.09,3.1-11.89,15.85c0,0-68,1.61-81,6.44s-16,10.4-13.37,20.05,21.17,43.83,24.14,67.23c0,0,29.49-1.85,36.19-7.42,0,0-13.53-40.49-22.82-52,0,0,20.43,4.09,28.23-.74l44.57-4.74s30.83,4.74,36-4.92,8.75-31.76,8.75-31.76Z" style="fill:#263238"></path><g style="clip-path:url(#freepik--clip-path-11--inject-129)"><path d="M193.88,381.51s-4.94-20-1.52-21.25,20,53.25,30.42,51.28S236,415.17,236,415.17L246.25,408l-8.35-30.74-9.49-18.72-8.9-4.65s-14.64-9.84-7.8-10.69,28.08,5,36,0,7,23.06,7,23.06L261,409.51l-6.94,13.66-54.91-2.28L192.74,395Z" style="opacity:0.5"></path></g><path d="M288.23,303.74s-4.09,3.1-11.89,15.85c0,0-68,1.61-81,6.44s-16,10.4-13.37,20.05,21.17,43.83,24.14,67.23c0,0,29.49-1.85,36.19-7.42,0,0-13.53-40.49-22.82-52,0,0,20.43,4.09,28.23-.74l44.57-4.74s30.83,4.74,36-4.92,8.75-31.76,8.75-31.76Z" style="fill:none;stroke:#263238;stroke-linecap:round;stroke-linejoin:round"></path><path d="M214.45,348.4a17,17,0,0,1,2,2.14" style="fill:none;stroke:#7f7f7f;stroke-linecap:round;stroke-linejoin:round;stroke-width:0.75px"></path><path d="M207.63,341.43s-10.4-8.35-11.14-4.63c-.59,2.93,8.43,5,15.22,9.5" style="fill:none;stroke:#7f7f7f;stroke-linecap:round;stroke-linejoin:round;stroke-width:0.75px"></path><path d="M279.19,401.67l1,15.17s3.85,5.08,4.39,16.42A2.59,2.59,0,0,1,282,436H254.91a2.59,2.59,0,0,1-2.49-3.3,13.62,13.62,0,0,1,3.49-6c4.21-4.21,6.44-6.19,6.19-13.37l-.74-11.64Z" style="fill:#fff;stroke:#263238;stroke-linecap:round;stroke-linejoin:round"></path><path d="M277.46,420.49c-3,.25-4-3.71-9-3.71s-6.85,2-6.85,2h0c-.87,3.16-2.82,5-5.69,7.86a13.62,13.62,0,0,0-3.49,6,2.59,2.59,0,0,0,2.49,3.3H282a2.59,2.59,0,0,0,2.59-2.71c-.54-11.34-4.39-16.42-4.39-16.42S280.43,420.25,277.46,420.49Z" style="fill:#263238;stroke:#263238;stroke-linecap:round;stroke-linejoin:round"></path><path d="M293.8,303.74s-7.06,5.57-9.66,18.2c0,0-36.77-.74-40.85,11.89s6.31,40.11,6.31,40.11-2.23,39.74,1.86,42,23.77.37,29.71-8.17c0,0,1.12-9.66-1.86-13.37,0,0,1.35-29.85-2-36.91a42.22,42.22,0,0,0,12.77-2c4.34-1.52,8.28-3.57,12.25-4.54,4.78-1.16,9.75.21,19.66-.67,6.16-.54,12.38-2.08,16.37-5.64,7.85-7,11.89-30.46,11.89-30.46Z" style="fill:#263238"></path><g style="clip-path:url(#freepik--clip-path-12--inject-129)"><path d="M280.84,360.26s-16.22-13.59-11.37-15.57,19.2,2.74,28,0,30,4.1,38-5.77,10.63-26.68,10.63-26.68l11.07,3.5-3.33,27.45-18,13.37s-25.14,10.82-28.32,10.82S280.84,360.26,280.84,360.26Z" style="opacity:0.5"></path></g><path d="M293.8,303.74s-7.06,5.57-9.66,18.2c0,0-36.77-.74-40.85,11.89s6.31,40.11,6.31,40.11-2.23,39.74,1.86,42,23.77.37,29.71-8.17c0,0,1.12-9.66-1.86-13.37,0,0,1.35-29.85-2-36.91a42.22,42.22,0,0,0,12.77-2c4.34-1.52,8.28-3.57,12.25-4.54,4.78-1.16,9.75.21,19.66-.67,6.16-.54,12.38-2.08,16.37-5.64,7.85-7,11.89-30.46,11.89-30.46Z" style="fill:none;stroke:#263238;stroke-linecap:round;stroke-linejoin:round"></path><path d="M258,384.13c5.52,8.46,16.43,24.41,18.35,21.38" style="fill:none;stroke:#7f7f7f;stroke-linecap:round;stroke-linejoin:round;stroke-width:0.75px"></path><path d="M254.8,379.14s.56.9,1.5,2.37" style="fill:none;stroke:#7f7f7f;stroke-linecap:round;stroke-linejoin:round;stroke-width:0.75px"></path><path d="M328,319s-9.8-12.67-1.74,11.85" style="fill:none;stroke:#7f7f7f;stroke-linecap:round;stroke-linejoin:round;stroke-width:0.75px"></path><path d="M294.5,320.21c5.11-.81,12.31-1.23,17.5,1.36" style="fill:none;stroke:#7f7f7f;stroke-linecap:round;stroke-linejoin:round;stroke-width:0.75px"></path><path d="M288.23,321.57s.93-.28,2.46-.63" style="fill:none;stroke:#7f7f7f;stroke-linecap:round;stroke-linejoin:round;stroke-width:0.75px"></path><path d="M242.7,346.89c.14,1.21.31,2.43.52,3.65" style="fill:none;stroke:#7f7f7f;stroke-linecap:round;stroke-linejoin:round;stroke-width:0.75px"></path><path d="M290.08,307.91a36.7,36.7,0,0,0-5.94,14s-36.77-.74-40.86,11.89a26.87,26.87,0,0,0-.89,9.36" style="fill:none;stroke:#7f7f7f;stroke-linecap:round;stroke-linejoin:round;stroke-width:0.75px"></path><path d="M261.69,341.44c3.6.23,11.32,2.5,14.65,6.5" style="fill:none;stroke:#7f7f7f;stroke-linecap:round;stroke-linejoin:round;stroke-width:0.75px"></path><path d="M276.34,355.37s-4.08-7.06-13.74-11.51" style="fill:none;stroke:#7f7f7f;stroke-linecap:round;stroke-linejoin:round;stroke-width:0.75px"></path><path d="M283.69,305.87a48.34,48.34,0,0,0,6.52-19c2-15.13.76-36.84,10.58-46.94,17.33-17.83,35.35-23.94,56.65-9.71s6.06,34.24-6.81,88.43C350.63,318.63,326.54,306.74,283.69,305.87Z" style="fill:#fff"></path><g style="clip-path:url(#freepik--clip-path-13--inject-129)"><path d="M282.47,303.74s8.3-5.27,25-3,25.65.84,24-3.54-36.29.63-36.06-3.54,30-6.25,39.6-3.54.28-2.08,2.12-7,5.37-3,3.71-13.85,1.09-15.43,1.09-15.43l20,7.51,16.25,16.25s-11.67,32.07-11.67,32.28-9.31,15.63-9.31,15.63l-80.78-14.37Z" style="opacity:0.2"></path></g><path d="M283.69,305.87a48.34,48.34,0,0,0,6.52-19c2-15.13.76-36.84,10.58-46.94,17.33-17.83,35.35-23.94,56.65-9.71s6.06,34.24-6.81,88.43C350.63,318.63,326.54,306.74,283.69,305.87Z" style="fill:none;stroke:#263238;stroke-linecap:round;stroke-linejoin:round"></path><path d="M312.19,228.34l2,3.75s16-15.63,24.33-14.15l2.24,5.3s-9.49.83-19.33,14.76L314,233.73,307.45,238Z" style="fill:#92E3A9"></path><g style="clip-path:url(#freepik--clip-path-14--inject-129)"><path d="M312.19,228.34l2,3.75s16-15.63,24.33-14.15l2.24,5.3s-9.49.83-19.33,14.76L314,233.73,307.45,238Z" style="fill:#fff;opacity:0.6000000000000001"></path></g><path d="M312.19,228.34l2,3.75s16-15.63,24.33-14.15l2.24,5.3s-9.49.83-19.33,14.76L314,233.73,307.45,238Z" style="fill:none;stroke:#263238;stroke-linecap:round;stroke-linejoin:round"></path><path d="M269.31,256.28s4.17-11.61,16.46-12.54l11.67,31.5-19.35,10.9Z" style="fill:#fff;stroke:#263238;stroke-linecap:round;stroke-linejoin:round;stroke-width:0.75px"></path><path d="M254.1,249.42s2.92-8,15.21,6.86c0,0,18.26-13.63,24-5.35l10.2,29.32L279.6,290.93,265.93,278Z" style="fill:#fff;stroke:#263238;stroke-linecap:round;stroke-linejoin:round;stroke-width:0.75px"></path><polygon points="284.24 293.2 278.09 292.99 265.93 260.39 272.08 260.59 284.24 293.2" style="fill:#92E3A9;stroke:#263238;stroke-linecap:round;stroke-linejoin:round"></polygon><path d="M295.32,249.42,307.48,282l-23.71,11.34-12.16-32.6A37.88,37.88,0,0,1,295.32,249.42Z" style="fill:#92E3A9"></path><g style="clip-path:url(#freepik--clip-path-15--inject-129)"><path d="M295.32,249.42,307.48,282l-23.71,11.34-12.16-32.6A37.88,37.88,0,0,1,295.32,249.42Z" style="fill:#fff;opacity:0.5"></path></g><path d="M295.32,249.42,307.48,282l-23.71,11.34-12.16-32.6A37.88,37.88,0,0,1,295.32,249.42Z" style="fill:none;stroke:#263238;stroke-linecap:round;stroke-linejoin:round"></path><path d="M265.93,260.39,278.09,293l-14.23-13.42L251.71,247S259.21,250.05,265.93,260.39Z" style="fill:#92E3A9"></path><g style="clip-path:url(#freepik--clip-path-16--inject-129)"><path d="M265.93,260.39,278.09,293l-14.23-13.42L251.71,247S259.21,250.05,265.93,260.39Z" style="fill:#fff;opacity:0.2"></path></g><path d="M265.93,260.39,278.09,293l-14.23-13.42L251.71,247S259.21,250.05,265.93,260.39Z" style="fill:none;stroke:#263238;stroke-linecap:round;stroke-linejoin:round"></path><path d="M363.81,291s-2.78,15.15-5.57,17-9.1,3.16-18.2,0-28-13.18-28-13.18l-6.13-2.6s-5,1.85-10.4-6.13c0,0-5.38-.54-6.41.75,0,0-2.41.18-1.76-2.42s6.31-2.7,6.31-2.7l-.27-.92s-4.68-.38-6.15,1.3-3.4,2.48-3.5,1.05,0-2.82,2-4.68,2.79-1.67,2.79-1.67-1.21-.65-4.37,1.58-4.55.37-4.55-.65,1.58-1.48,2.7-2.32,5.38-3.16,7.15-3.25,5.47.56,5.47,0a3.8,3.8,0,0,0-.46-1.39l-8.73-.65s-4.55,1.39-4.36-1.12,4.64-2.88,4.64-2.88h7.14s6.79.47,8.74,2.7,5.57,10.58,9,11.79,29,9.1,31.38,7.8,3-5.85,3-5.85l19.22,4.28Z" style="fill:#fff;stroke:#263238;stroke-linecap:round;stroke-linejoin:round"></path><path d="M357.44,230.2s12.13,6.31,14.61,17.46-7.43,48.53-7.43,48.53-6.69-7-21.54-9.34c0,0,2-7.5,0-18.39-1.17-6.39-2.41-14.82.5-22.82" style="fill:#fff;stroke:#263238;stroke-linecap:round;stroke-linejoin:round"></path><path d="M341.35,287.56s16.8,3.09,22.86,11.29c0,0,2.26-.83,2.26-4,0,0,1.24-.95,1-3.57,0,0-8.74-6.77-25.21-8.08,0,0-1.71.72-.95,1.67C341.35,284.83,338.41,286.89,341.35,287.56Z" style="fill:#92E3A9"></path><g style="clip-path:url(#freepik--clip-path-17--inject-129)"><path d="M341.35,287.56s16.8,3.09,22.86,11.29c0,0,2.26-.83,2.26-4,0,0,1.24-.95,1-3.57,0,0-8.74-6.77-25.21-8.08,0,0-1.71.72-.95,1.67C341.35,284.83,338.41,286.89,341.35,287.56Z" style="fill:#fff;opacity:0.6000000000000001"></path></g><path d="M341.35,287.56s16.8,3.09,22.86,11.29c0,0,2.26-.83,2.26-4,0,0,1.24-.95,1-3.57,0,0-8.74-6.77-25.21-8.08,0,0-1.71.72-.95,1.67C341.35,284.83,338.41,286.89,341.35,287.56Z" style="fill:none;stroke:#263238;stroke-linecap:round;stroke-linejoin:round"></path><path d="M294.13,276.31s-2.74-1-4-.25" style="fill:none;stroke:#263238;stroke-linecap:round;stroke-linejoin:round;stroke-width:0.75px"></path></g></svg>